<svg xmlns="http://www.w3.org/2000/svg" version="1.1" xmlns:xlink="http://www.w3.org/1999/xlink" xmlns:svgjs="http://svgjs.dev/svgjs" width="1000" height="500" preserveAspectRatio="none" viewBox="0 0 1000 500"><g mask="url(&quot;#SvgjsMask1120&quot;)" fill="none"><path d="M1072.4 159.1C981.64 161.88 871.69 302.29 737.27 299.1 602.85 295.91 646.04 20.65 569.7-32.11" stroke="rgba(255, 255, 255, 0.58)" stroke-width="2"></path><path d="M1108.79 326.86C1026.73 326.57 947.67 264.36 786.55 264.36 625.43 264.36 640.57 333.25 464.32 326.86 288.06 320.47 256.74 8.61 142.08-22.64" stroke="rgba(255, 255, 255, 0.58)" stroke-width="2"></path><path d="M1068.53 286.89C949.24 283.18 866.02 108.72 628.44 101.89 390.86 95.06 306.65-69.28 188.35-72.42" stroke="rgba(255, 255, 255, 0.58)" stroke-width="2"></path><path d="M1025.36 150.28C929.62 156.26 862.34 336.51 689.2 335.28 516.07 334.05 470.85 13.95 353.05-16.03" stroke="rgba(255, 255, 255, 0.58)" stroke-width="2"></path><path d="M1071.33 271.51C973.3 259.21 928.02 43.21 753.58 36.51 579.15 29.81 516.43-17.64 435.84-17.84" stroke="rgba(255, 255, 255, 0.58)" stroke-width="2"></path></g><defs><mask id="SvgjsMask1120"><rect width="1000" height="500" fill="#ffffff"></rect></mask></defs></svg>