<svg xmlns="http://www.w3.org/2000/svg" version="1.1" xmlns:xlink="http://www.w3.org/1999/xlink" xmlns:svgjs="http://svgjs.dev/svgjs" viewBox="0 0 2400 800" opacity="0.27"><defs><linearGradient x1="50%" y1="0%" x2="50%" y2="100%" id="oooscillate-grad"><stop stop-color="hsl(0, 0%, 100%)" stop-opacity="1" offset="0%"></stop><stop stop-color="hsl(0, 0%, 100%)" stop-opacity="1" offset="100%"></stop></linearGradient></defs><g stroke-width="1" stroke="url(#oooscillate-grad)" fill="none" stroke-linecap="round"><path d="M 0 1554 Q 600 -100 1200 400 Q 1800 900 2400 1554" stroke-dasharray="126 51" opacity="0.05"></path><path d="M 0 1540 Q 600 -100 1200 400 Q 1800 900 2400 1540" stroke-dasharray="62 124" opacity="0.06"></path><path d="M 0 1526 Q 600 -100 1200 400 Q 1800 900 2400 1526" stroke-dasharray="79 122" opacity="0.07"></path><path d="M 0 1512 Q 600 -100 1200 400 Q 1800 900 2400 1512" stroke-dasharray="29 106" opacity="0.08"></path><path d="M 0 1498 Q 600 -100 1200 400 Q 1800 900 2400 1498" stroke-dasharray="142 121" opacity="0.08"></path><path d="M 0 1484 Q 600 -100 1200 400 Q 1800 900 2400 1484" stroke-dasharray="48 124" opacity="0.09"></path><path d="M 0 1470 Q 600 -100 1200 400 Q 1800 900 2400 1470" stroke-dasharray="53 142" opacity="0.10"></path><path d="M 0 1456 Q 600 -100 1200 400 Q 1800 900 2400 1456" stroke-dasharray="12 75" opacity="0.11"></path><path d="M 0 1442 Q 600 -100 1200 400 Q 1800 900 2400 1442" stroke-dasharray="128 64" opacity="0.12"></path><path d="M 0 1428 Q 600 -100 1200 400 Q 1800 900 2400 1428" stroke-dasharray="27 141" opacity="0.13"></path><path d="M 0 1414 Q 600 -100 1200 400 Q 1800 900 2400 1414" stroke-dasharray="22 127" opacity="0.14"></path><path d="M 0 1400 Q 600 -100 1200 400 Q 1800 900 2400 1400" stroke-dasharray="46 24" opacity="0.15"></path><path d="M 0 1386 Q 600 -100 1200 400 Q 1800 900 2400 1386" stroke-dasharray="100 91" opacity="0.15"></path><path d="M 0 1372 Q 600 -100 1200 400 Q 1800 900 2400 1372" stroke-dasharray="66 124" opacity="0.16"></path><path d="M 0 1358 Q 600 -100 1200 400 Q 1800 900 2400 1358" stroke-dasharray="56 23" opacity="0.17"></path><path d="M 0 1344 Q 600 -100 1200 400 Q 1800 900 2400 1344" stroke-dasharray="131 91" opacity="0.18"></path><path d="M 0 1330 Q 600 -100 1200 400 Q 1800 900 2400 1330" stroke-dasharray="27 63" opacity="0.19"></path><path d="M 0 1316 Q 600 -100 1200 400 Q 1800 900 2400 1316" stroke-dasharray="131 3" opacity="0.20"></path><path d="M 0 1302 Q 600 -100 1200 400 Q 1800 900 2400 1302" stroke-dasharray="64 73" opacity="0.21"></path><path d="M 0 1288 Q 600 -100 1200 400 Q 1800 900 2400 1288" stroke-dasharray="68 140" opacity="0.21"></path><path d="M 0 1274 Q 600 -100 1200 400 Q 1800 900 2400 1274" stroke-dasharray="20 128" opacity="0.22"></path><path d="M 0 1260 Q 600 -100 1200 400 Q 1800 900 2400 1260" stroke-dasharray="112 5" opacity="0.23"></path><path d="M 0 1246 Q 600 -100 1200 400 Q 1800 900 2400 1246" stroke-dasharray="135 19" opacity="0.24"></path><path d="M 0 1232 Q 600 -100 1200 400 Q 1800 900 2400 1232" stroke-dasharray="77 86" opacity="0.25"></path><path d="M 0 1218 Q 600 -100 1200 400 Q 1800 900 2400 1218" stroke-dasharray="75 81" opacity="0.26"></path><path d="M 0 1204 Q 600 -100 1200 400 Q 1800 900 2400 1204" stroke-dasharray="10 97" opacity="0.27"></path><path d="M 0 1190 Q 600 -100 1200 400 Q 1800 900 2400 1190" stroke-dasharray="130 98" opacity="0.27"></path><path d="M 0 1176 Q 600 -100 1200 400 Q 1800 900 2400 1176" stroke-dasharray="1 124" opacity="0.28"></path><path d="M 0 1162 Q 600 -100 1200 400 Q 1800 900 2400 1162" stroke-dasharray="38 28" opacity="0.29"></path><path d="M 0 1148 Q 600 -100 1200 400 Q 1800 900 2400 1148" stroke-dasharray="140 27" opacity="0.30"></path><path d="M 0 1134 Q 600 -100 1200 400 Q 1800 900 2400 1134" stroke-dasharray="130 11" opacity="0.31"></path><path d="M 0 1120 Q 600 -100 1200 400 Q 1800 900 2400 1120" stroke-dasharray="23 75" opacity="0.32"></path><path d="M 0 1106 Q 600 -100 1200 400 Q 1800 900 2400 1106" stroke-dasharray="83 96" opacity="0.33"></path><path d="M 0 1092 Q 600 -100 1200 400 Q 1800 900 2400 1092" stroke-dasharray="102 111" opacity="0.33"></path><path d="M 0 1078 Q 600 -100 1200 400 Q 1800 900 2400 1078" stroke-dasharray="48 38" opacity="0.34"></path><path d="M 0 1064 Q 600 -100 1200 400 Q 1800 900 2400 1064" stroke-dasharray="103 64" opacity="0.35"></path><path d="M 0 1050 Q 600 -100 1200 400 Q 1800 900 2400 1050" stroke-dasharray="10 22" opacity="0.36"></path><path d="M 0 1036 Q 600 -100 1200 400 Q 1800 900 2400 1036" stroke-dasharray="59 140" opacity="0.37"></path><path d="M 0 1022 Q 600 -100 1200 400 Q 1800 900 2400 1022" stroke-dasharray="45 5" opacity="0.38"></path><path d="M 0 1008 Q 600 -100 1200 400 Q 1800 900 2400 1008" stroke-dasharray="25 61" opacity="0.39"></path><path d="M 0 994 Q 600 -100 1200 400 Q 1800 900 2400 994" stroke-dasharray="98 122" opacity="0.40"></path><path d="M 0 980 Q 600 -100 1200 400 Q 1800 900 2400 980" stroke-dasharray="132 17" opacity="0.40"></path><path d="M 0 966 Q 600 -100 1200 400 Q 1800 900 2400 966" stroke-dasharray="126 109" opacity="0.41"></path><path d="M 0 952 Q 600 -100 1200 400 Q 1800 900 2400 952" stroke-dasharray="115 112" opacity="0.42"></path><path d="M 0 938 Q 600 -100 1200 400 Q 1800 900 2400 938" stroke-dasharray="12 7" opacity="0.43"></path><path d="M 0 924 Q 600 -100 1200 400 Q 1800 900 2400 924" stroke-dasharray="9 131" opacity="0.44"></path><path d="M 0 910 Q 600 -100 1200 400 Q 1800 900 2400 910" stroke-dasharray="149 148" opacity="0.45"></path><path d="M 0 896 Q 600 -100 1200 400 Q 1800 900 2400 896" stroke-dasharray="92 18" opacity="0.46"></path><path d="M 0 882 Q 600 -100 1200 400 Q 1800 900 2400 882" stroke-dasharray="95 119" opacity="0.46"></path><path d="M 0 868 Q 600 -100 1200 400 Q 1800 900 2400 868" stroke-dasharray="10 144" opacity="0.47"></path><path d="M 0 854 Q 600 -100 1200 400 Q 1800 900 2400 854" stroke-dasharray="45 64" opacity="0.48"></path><path d="M 0 840 Q 600 -100 1200 400 Q 1800 900 2400 840" stroke-dasharray="141 96" opacity="0.49"></path><path d="M 0 826 Q 600 -100 1200 400 Q 1800 900 2400 826" stroke-dasharray="46 28" opacity="0.50"></path><path d="M 0 812 Q 600 -100 1200 400 Q 1800 900 2400 812" stroke-dasharray="14 61" opacity="0.51"></path><path d="M 0 798 Q 600 -100 1200 400 Q 1800 900 2400 798" stroke-dasharray="129 138" opacity="0.52"></path><path d="M 0 784 Q 600 -100 1200 400 Q 1800 900 2400 784" stroke-dasharray="73 56" opacity="0.53"></path><path d="M 0 770 Q 600 -100 1200 400 Q 1800 900 2400 770" stroke-dasharray="97 139" opacity="0.53"></path><path d="M 0 756 Q 600 -100 1200 400 Q 1800 900 2400 756" stroke-dasharray="15 86" opacity="0.54"></path><path d="M 0 742 Q 600 -100 1200 400 Q 1800 900 2400 742" stroke-dasharray="114 66" opacity="0.55"></path><path d="M 0 728 Q 600 -100 1200 400 Q 1800 900 2400 728" stroke-dasharray="59 56" opacity="0.56"></path><path d="M 0 714 Q 600 -100 1200 400 Q 1800 900 2400 714" stroke-dasharray="138 74" opacity="0.57"></path><path d="M 0 700 Q 600 -100 1200 400 Q 1800 900 2400 700" stroke-dasharray="19 132" opacity="0.58"></path><path d="M 0 686 Q 600 -100 1200 400 Q 1800 900 2400 686" stroke-dasharray="112 92" opacity="0.59"></path><path d="M 0 672 Q 600 -100 1200 400 Q 1800 900 2400 672" stroke-dasharray="11 146" opacity="0.59"></path><path d="M 0 658 Q 600 -100 1200 400 Q 1800 900 2400 658" stroke-dasharray="79 20" opacity="0.60"></path><path d="M 0 644 Q 600 -100 1200 400 Q 1800 900 2400 644" stroke-dasharray="88 56" opacity="0.61"></path><path d="M 0 630 Q 600 -100 1200 400 Q 1800 900 2400 630" stroke-dasharray="124 128" opacity="0.62"></path><path d="M 0 616 Q 600 -100 1200 400 Q 1800 900 2400 616" stroke-dasharray="144 28" opacity="0.63"></path><path d="M 0 602 Q 600 -100 1200 400 Q 1800 900 2400 602" stroke-dasharray="43 104" opacity="0.64"></path><path d="M 0 588 Q 600 -100 1200 400 Q 1800 900 2400 588" stroke-dasharray="89 87" opacity="0.65"></path><path d="M 0 574 Q 600 -100 1200 400 Q 1800 900 2400 574" stroke-dasharray="7 25" opacity="0.65"></path><path d="M 0 560 Q 600 -100 1200 400 Q 1800 900 2400 560" stroke-dasharray="107 112" opacity="0.66"></path><path d="M 0 546 Q 600 -100 1200 400 Q 1800 900 2400 546" stroke-dasharray="1 53" opacity="0.67"></path><path d="M 0 532 Q 600 -100 1200 400 Q 1800 900 2400 532" stroke-dasharray="59 135" opacity="0.68"></path><path d="M 0 518 Q 600 -100 1200 400 Q 1800 900 2400 518" stroke-dasharray="141 149" opacity="0.69"></path><path d="M 0 504 Q 600 -100 1200 400 Q 1800 900 2400 504" stroke-dasharray="105 70" opacity="0.70"></path><path d="M 0 490 Q 600 -100 1200 400 Q 1800 900 2400 490" stroke-dasharray="94 123" opacity="0.71"></path><path d="M 0 476 Q 600 -100 1200 400 Q 1800 900 2400 476" stroke-dasharray="127 130" opacity="0.71"></path><path d="M 0 462 Q 600 -100 1200 400 Q 1800 900 2400 462" stroke-dasharray="29 128" opacity="0.72"></path><path d="M 0 448 Q 600 -100 1200 400 Q 1800 900 2400 448" stroke-dasharray="113 78" opacity="0.73"></path><path d="M 0 434 Q 600 -100 1200 400 Q 1800 900 2400 434" stroke-dasharray="48 8" opacity="0.74"></path><path d="M 0 420 Q 600 -100 1200 400 Q 1800 900 2400 420" stroke-dasharray="111 9" opacity="0.75"></path><path d="M 0 406 Q 600 -100 1200 400 Q 1800 900 2400 406" stroke-dasharray="61 125" opacity="0.76"></path><path d="M 0 392 Q 600 -100 1200 400 Q 1800 900 2400 392" stroke-dasharray="77 54" opacity="0.77"></path><path d="M 0 378 Q 600 -100 1200 400 Q 1800 900 2400 378" stroke-dasharray="115 147" opacity="0.78"></path><path d="M 0 364 Q 600 -100 1200 400 Q 1800 900 2400 364" stroke-dasharray="92 21" opacity="0.78"></path><path d="M 0 350 Q 600 -100 1200 400 Q 1800 900 2400 350" stroke-dasharray="44 124" opacity="0.79"></path><path d="M 0 336 Q 600 -100 1200 400 Q 1800 900 2400 336" stroke-dasharray="144 54" opacity="0.80"></path><path d="M 0 322 Q 600 -100 1200 400 Q 1800 900 2400 322" stroke-dasharray="86 96" opacity="0.81"></path><path d="M 0 308 Q 600 -100 1200 400 Q 1800 900 2400 308" stroke-dasharray="24 130" opacity="0.82"></path><path d="M 0 294 Q 600 -100 1200 400 Q 1800 900 2400 294" stroke-dasharray="73 36" opacity="0.83"></path><path d="M 0 280 Q 600 -100 1200 400 Q 1800 900 2400 280" stroke-dasharray="41 83" opacity="0.84"></path><path d="M 0 266 Q 600 -100 1200 400 Q 1800 900 2400 266" stroke-dasharray="118 97" opacity="0.84"></path><path d="M 0 252 Q 600 -100 1200 400 Q 1800 900 2400 252" stroke-dasharray="68 47" opacity="0.85"></path><path d="M 0 238 Q 600 -100 1200 400 Q 1800 900 2400 238" stroke-dasharray="78 134" opacity="0.86"></path><path d="M 0 224 Q 600 -100 1200 400 Q 1800 900 2400 224" stroke-dasharray="124 113" opacity="0.87"></path><path d="M 0 210 Q 600 -100 1200 400 Q 1800 900 2400 210" stroke-dasharray="108 108" opacity="0.88"></path><path d="M 0 196 Q 600 -100 1200 400 Q 1800 900 2400 196" stroke-dasharray="36 81" opacity="0.89"></path><path d="M 0 182 Q 600 -100 1200 400 Q 1800 900 2400 182" stroke-dasharray="112 146" opacity="0.90"></path><path d="M 0 168 Q 600 -100 1200 400 Q 1800 900 2400 168" stroke-dasharray="134 149" opacity="0.91"></path><path d="M 0 154 Q 600 -100 1200 400 Q 1800 900 2400 154" stroke-dasharray="148 112" opacity="0.91"></path><path d="M 0 140 Q 600 -100 1200 400 Q 1800 900 2400 140" stroke-dasharray="42 51" opacity="0.92"></path><path d="M 0 126 Q 600 -100 1200 400 Q 1800 900 2400 126" stroke-dasharray="144 12" opacity="0.93"></path><path d="M 0 112 Q 600 -100 1200 400 Q 1800 900 2400 112" stroke-dasharray="71 20" opacity="0.94"></path><path d="M 0 98 Q 600 -100 1200 400 Q 1800 900 2400 98" stroke-dasharray="36 31" opacity="0.95"></path><path d="M 0 84 Q 600 -100 1200 400 Q 1800 900 2400 84" stroke-dasharray="9 54" opacity="0.96"></path><path d="M 0 70 Q 600 -100 1200 400 Q 1800 900 2400 70" stroke-dasharray="19 131" opacity="0.97"></path><path d="M 0 56 Q 600 -100 1200 400 Q 1800 900 2400 56" stroke-dasharray="63 62" opacity="0.97"></path><path d="M 0 42 Q 600 -100 1200 400 Q 1800 900 2400 42" stroke-dasharray="132 77" opacity="0.98"></path><path d="M 0 28 Q 600 -100 1200 400 Q 1800 900 2400 28" stroke-dasharray="43 139" opacity="0.99"></path></g></svg>