<svg xmlns="http://www.w3.org/2000/svg" version="1.1" xmlns:xlink="http://www.w3.org/1999/xlink" xmlns:svgjs="http://svgjs.dev/svgjs" viewBox="0 0 1422 800" opacity="0.27"><defs><linearGradient x1="50%" y1="0%" x2="50%" y2="100%" id="oooscillate-grad"><stop stop-color="hsl(0, 0%, 100%)" stop-opacity="1" offset="0%"></stop><stop stop-color="hsl(0, 0%, 100%)" stop-opacity="1" offset="100%"></stop></linearGradient></defs><g stroke-width="1" stroke="url(#oooscillate-grad)" fill="none" stroke-linecap="round"><path d="M 0 888 Q 355.5 -100 711 400 Q 1066.5 900 1422 888" stroke-dasharray="63 71" opacity="0.05"></path><path d="M 0 880 Q 355.5 -100 711 400 Q 1066.5 900 1422 880" stroke-dasharray="43 60" opacity="0.06"></path><path d="M 0 872 Q 355.5 -100 711 400 Q 1066.5 900 1422 872" stroke-dasharray="64 30" opacity="0.07"></path><path d="M 0 864 Q 355.5 -100 711 400 Q 1066.5 900 1422 864" stroke-dasharray="37 40" opacity="0.08"></path><path d="M 0 856 Q 355.5 -100 711 400 Q 1066.5 900 1422 856" stroke-dasharray="41 61" opacity="0.08"></path><path d="M 0 848 Q 355.5 -100 711 400 Q 1066.5 900 1422 848" stroke-dasharray="85 149" opacity="0.09"></path><path d="M 0 840 Q 355.5 -100 711 400 Q 1066.5 900 1422 840" stroke-dasharray="55 94" opacity="0.10"></path><path d="M 0 832 Q 355.5 -100 711 400 Q 1066.5 900 1422 832" stroke-dasharray="19 107" opacity="0.11"></path><path d="M 0 824 Q 355.5 -100 711 400 Q 1066.5 900 1422 824" stroke-dasharray="66 82" opacity="0.12"></path><path d="M 0 816 Q 355.5 -100 711 400 Q 1066.5 900 1422 816" stroke-dasharray="15 7" opacity="0.13"></path><path d="M 0 808 Q 355.5 -100 711 400 Q 1066.5 900 1422 808" stroke-dasharray="132 106" opacity="0.14"></path><path d="M 0 800 Q 355.5 -100 711 400 Q 1066.5 900 1422 800" stroke-dasharray="60 23" opacity="0.15"></path><path d="M 0 792 Q 355.5 -100 711 400 Q 1066.5 900 1422 792" stroke-dasharray="73 90" opacity="0.15"></path><path d="M 0 784 Q 355.5 -100 711 400 Q 1066.5 900 1422 784" stroke-dasharray="7 133" opacity="0.16"></path><path d="M 0 776 Q 355.5 -100 711 400 Q 1066.5 900 1422 776" stroke-dasharray="144 126" opacity="0.17"></path><path d="M 0 768 Q 355.5 -100 711 400 Q 1066.5 900 1422 768" stroke-dasharray="5 126" opacity="0.18"></path><path d="M 0 760 Q 355.5 -100 711 400 Q 1066.5 900 1422 760" stroke-dasharray="118 83" opacity="0.19"></path><path d="M 0 752 Q 355.5 -100 711 400 Q 1066.5 900 1422 752" stroke-dasharray="41 91" opacity="0.20"></path><path d="M 0 744 Q 355.5 -100 711 400 Q 1066.5 900 1422 744" stroke-dasharray="36 68" opacity="0.21"></path><path d="M 0 736 Q 355.5 -100 711 400 Q 1066.5 900 1422 736" stroke-dasharray="48 134" opacity="0.21"></path><path d="M 0 728 Q 355.5 -100 711 400 Q 1066.5 900 1422 728" stroke-dasharray="118 148" opacity="0.22"></path><path d="M 0 720 Q 355.5 -100 711 400 Q 1066.5 900 1422 720" stroke-dasharray="75 28" opacity="0.23"></path><path d="M 0 712 Q 355.5 -100 711 400 Q 1066.5 900 1422 712" stroke-dasharray="25 23" opacity="0.24"></path><path d="M 0 704 Q 355.5 -100 711 400 Q 1066.5 900 1422 704" stroke-dasharray="97 17" opacity="0.25"></path><path d="M 0 696 Q 355.5 -100 711 400 Q 1066.5 900 1422 696" stroke-dasharray="47 127" opacity="0.26"></path><path d="M 0 688 Q 355.5 -100 711 400 Q 1066.5 900 1422 688" stroke-dasharray="30 23" opacity="0.27"></path><path d="M 0 680 Q 355.5 -100 711 400 Q 1066.5 900 1422 680" stroke-dasharray="85 21" opacity="0.27"></path><path d="M 0 672 Q 355.5 -100 711 400 Q 1066.5 900 1422 672" stroke-dasharray="26 42" opacity="0.28"></path><path d="M 0 664 Q 355.5 -100 711 400 Q 1066.5 900 1422 664" stroke-dasharray="36 39" opacity="0.29"></path><path d="M 0 656 Q 355.5 -100 711 400 Q 1066.5 900 1422 656" stroke-dasharray="135 118" opacity="0.30"></path><path d="M 0 648 Q 355.5 -100 711 400 Q 1066.5 900 1422 648" stroke-dasharray="141 87" opacity="0.31"></path><path d="M 0 640 Q 355.5 -100 711 400 Q 1066.5 900 1422 640" stroke-dasharray="4 79" opacity="0.32"></path><path d="M 0 632 Q 355.5 -100 711 400 Q 1066.5 900 1422 632" stroke-dasharray="96 134" opacity="0.33"></path><path d="M 0 624 Q 355.5 -100 711 400 Q 1066.5 900 1422 624" stroke-dasharray="84 83" opacity="0.33"></path><path d="M 0 616 Q 355.5 -100 711 400 Q 1066.5 900 1422 616" stroke-dasharray="53 142" opacity="0.34"></path><path d="M 0 608 Q 355.5 -100 711 400 Q 1066.5 900 1422 608" stroke-dasharray="96 107" opacity="0.35"></path><path d="M 0 600 Q 355.5 -100 711 400 Q 1066.5 900 1422 600" stroke-dasharray="99 128" opacity="0.36"></path><path d="M 0 592 Q 355.5 -100 711 400 Q 1066.5 900 1422 592" stroke-dasharray="43 81" opacity="0.37"></path><path d="M 0 584 Q 355.5 -100 711 400 Q 1066.5 900 1422 584" stroke-dasharray="112 48" opacity="0.38"></path><path d="M 0 576 Q 355.5 -100 711 400 Q 1066.5 900 1422 576" stroke-dasharray="44 1" opacity="0.39"></path><path d="M 0 568 Q 355.5 -100 711 400 Q 1066.5 900 1422 568" stroke-dasharray="43 32" opacity="0.40"></path><path d="M 0 560 Q 355.5 -100 711 400 Q 1066.5 900 1422 560" stroke-dasharray="57 60" opacity="0.40"></path><path d="M 0 552 Q 355.5 -100 711 400 Q 1066.5 900 1422 552" stroke-dasharray="80 140" opacity="0.41"></path><path d="M 0 544 Q 355.5 -100 711 400 Q 1066.5 900 1422 544" stroke-dasharray="44 30" opacity="0.42"></path><path d="M 0 536 Q 355.5 -100 711 400 Q 1066.5 900 1422 536" stroke-dasharray="136 116" opacity="0.43"></path><path d="M 0 528 Q 355.5 -100 711 400 Q 1066.5 900 1422 528" stroke-dasharray="17 97" opacity="0.44"></path><path d="M 0 520 Q 355.5 -100 711 400 Q 1066.5 900 1422 520" stroke-dasharray="53 143" opacity="0.45"></path><path d="M 0 512 Q 355.5 -100 711 400 Q 1066.5 900 1422 512" stroke-dasharray="77 18" opacity="0.46"></path><path d="M 0 504 Q 355.5 -100 711 400 Q 1066.5 900 1422 504" stroke-dasharray="133 78" opacity="0.46"></path><path d="M 0 496 Q 355.5 -100 711 400 Q 1066.5 900 1422 496" stroke-dasharray="27 121" opacity="0.47"></path><path d="M 0 488 Q 355.5 -100 711 400 Q 1066.5 900 1422 488" stroke-dasharray="97 133" opacity="0.48"></path><path d="M 0 480 Q 355.5 -100 711 400 Q 1066.5 900 1422 480" stroke-dasharray="99 139" opacity="0.49"></path><path d="M 0 472 Q 355.5 -100 711 400 Q 1066.5 900 1422 472" stroke-dasharray="135 43" opacity="0.50"></path><path d="M 0 464 Q 355.5 -100 711 400 Q 1066.5 900 1422 464" stroke-dasharray="46 21" opacity="0.51"></path><path d="M 0 456 Q 355.5 -100 711 400 Q 1066.5 900 1422 456" stroke-dasharray="28 108" opacity="0.52"></path><path d="M 0 448 Q 355.5 -100 711 400 Q 1066.5 900 1422 448" stroke-dasharray="3 39" opacity="0.53"></path><path d="M 0 440 Q 355.5 -100 711 400 Q 1066.5 900 1422 440" stroke-dasharray="96 77" opacity="0.53"></path><path d="M 0 432 Q 355.5 -100 711 400 Q 1066.5 900 1422 432" stroke-dasharray="59 28" opacity="0.54"></path><path d="M 0 424 Q 355.5 -100 711 400 Q 1066.5 900 1422 424" stroke-dasharray="148 149" opacity="0.55"></path><path d="M 0 416 Q 355.5 -100 711 400 Q 1066.5 900 1422 416" stroke-dasharray="52 1" opacity="0.56"></path><path d="M 0 408 Q 355.5 -100 711 400 Q 1066.5 900 1422 408" stroke-dasharray="50 26" opacity="0.57"></path><path d="M 0 400 Q 355.5 -100 711 400 Q 1066.5 900 1422 400" stroke-dasharray="15 102" opacity="0.58"></path><path d="M 0 392 Q 355.5 -100 711 400 Q 1066.5 900 1422 392" stroke-dasharray="96 110" opacity="0.59"></path><path d="M 0 384 Q 355.5 -100 711 400 Q 1066.5 900 1422 384" stroke-dasharray="17 14" opacity="0.59"></path><path d="M 0 376 Q 355.5 -100 711 400 Q 1066.5 900 1422 376" stroke-dasharray="126 60" opacity="0.60"></path><path d="M 0 368 Q 355.5 -100 711 400 Q 1066.5 900 1422 368" stroke-dasharray="102 46" opacity="0.61"></path><path d="M 0 360 Q 355.5 -100 711 400 Q 1066.5 900 1422 360" stroke-dasharray="142 103" opacity="0.62"></path><path d="M 0 352 Q 355.5 -100 711 400 Q 1066.5 900 1422 352" stroke-dasharray="136 91" opacity="0.63"></path><path d="M 0 344 Q 355.5 -100 711 400 Q 1066.5 900 1422 344" stroke-dasharray="10 132" opacity="0.64"></path><path d="M 0 336 Q 355.5 -100 711 400 Q 1066.5 900 1422 336" stroke-dasharray="7 116" opacity="0.65"></path><path d="M 0 328 Q 355.5 -100 711 400 Q 1066.5 900 1422 328" stroke-dasharray="147 10" opacity="0.65"></path><path d="M 0 320 Q 355.5 -100 711 400 Q 1066.5 900 1422 320" stroke-dasharray="32 148" opacity="0.66"></path><path d="M 0 312 Q 355.5 -100 711 400 Q 1066.5 900 1422 312" stroke-dasharray="106 67" opacity="0.67"></path><path d="M 0 304 Q 355.5 -100 711 400 Q 1066.5 900 1422 304" stroke-dasharray="28 139" opacity="0.68"></path><path d="M 0 296 Q 355.5 -100 711 400 Q 1066.5 900 1422 296" stroke-dasharray="21 120" opacity="0.69"></path><path d="M 0 288 Q 355.5 -100 711 400 Q 1066.5 900 1422 288" stroke-dasharray="76 42" opacity="0.70"></path><path d="M 0 280 Q 355.5 -100 711 400 Q 1066.5 900 1422 280" stroke-dasharray="115 129" opacity="0.71"></path><path d="M 0 272 Q 355.5 -100 711 400 Q 1066.5 900 1422 272" stroke-dasharray="90 108" opacity="0.71"></path><path d="M 0 264 Q 355.5 -100 711 400 Q 1066.5 900 1422 264" stroke-dasharray="38 32" opacity="0.72"></path><path d="M 0 256 Q 355.5 -100 711 400 Q 1066.5 900 1422 256" stroke-dasharray="44 21" opacity="0.73"></path><path d="M 0 248 Q 355.5 -100 711 400 Q 1066.5 900 1422 248" stroke-dasharray="148 101" opacity="0.74"></path><path d="M 0 240 Q 355.5 -100 711 400 Q 1066.5 900 1422 240" stroke-dasharray="123 149" opacity="0.75"></path><path d="M 0 232 Q 355.5 -100 711 400 Q 1066.5 900 1422 232" stroke-dasharray="98 98" opacity="0.76"></path><path d="M 0 224 Q 355.5 -100 711 400 Q 1066.5 900 1422 224" stroke-dasharray="102 35" opacity="0.77"></path><path d="M 0 216 Q 355.5 -100 711 400 Q 1066.5 900 1422 216" stroke-dasharray="80 49" opacity="0.78"></path><path d="M 0 208 Q 355.5 -100 711 400 Q 1066.5 900 1422 208" stroke-dasharray="99 113" opacity="0.78"></path><path d="M 0 200 Q 355.5 -100 711 400 Q 1066.5 900 1422 200" stroke-dasharray="17 75" opacity="0.79"></path><path d="M 0 192 Q 355.5 -100 711 400 Q 1066.5 900 1422 192" stroke-dasharray="45 31" opacity="0.80"></path><path d="M 0 184 Q 355.5 -100 711 400 Q 1066.5 900 1422 184" stroke-dasharray="138 17" opacity="0.81"></path><path d="M 0 176 Q 355.5 -100 711 400 Q 1066.5 900 1422 176" stroke-dasharray="112 16" opacity="0.82"></path><path d="M 0 168 Q 355.5 -100 711 400 Q 1066.5 900 1422 168" stroke-dasharray="105 142" opacity="0.83"></path><path d="M 0 160 Q 355.5 -100 711 400 Q 1066.5 900 1422 160" stroke-dasharray="104 10" opacity="0.84"></path><path d="M 0 152 Q 355.5 -100 711 400 Q 1066.5 900 1422 152" stroke-dasharray="11 86" opacity="0.84"></path><path d="M 0 144 Q 355.5 -100 711 400 Q 1066.5 900 1422 144" stroke-dasharray="70 140" opacity="0.85"></path><path d="M 0 136 Q 355.5 -100 711 400 Q 1066.5 900 1422 136" stroke-dasharray="71 124" opacity="0.86"></path><path d="M 0 128 Q 355.5 -100 711 400 Q 1066.5 900 1422 128" stroke-dasharray="70 133" opacity="0.87"></path><path d="M 0 120 Q 355.5 -100 711 400 Q 1066.5 900 1422 120" stroke-dasharray="119 53" opacity="0.88"></path><path d="M 0 112 Q 355.5 -100 711 400 Q 1066.5 900 1422 112" stroke-dasharray="96 47" opacity="0.89"></path><path d="M 0 104 Q 355.5 -100 711 400 Q 1066.5 900 1422 104" stroke-dasharray="43 119" opacity="0.90"></path><path d="M 0 96 Q 355.5 -100 711 400 Q 1066.5 900 1422 96" stroke-dasharray="65 124" opacity="0.91"></path><path d="M 0 88 Q 355.5 -100 711 400 Q 1066.5 900 1422 88" stroke-dasharray="74 100" opacity="0.91"></path><path d="M 0 80 Q 355.5 -100 711 400 Q 1066.5 900 1422 80" stroke-dasharray="94 135" opacity="0.92"></path><path d="M 0 72 Q 355.5 -100 711 400 Q 1066.5 900 1422 72" stroke-dasharray="10 136" opacity="0.93"></path><path d="M 0 64 Q 355.5 -100 711 400 Q 1066.5 900 1422 64" stroke-dasharray="74 38" opacity="0.94"></path><path d="M 0 56 Q 355.5 -100 711 400 Q 1066.5 900 1422 56" stroke-dasharray="3 37" opacity="0.95"></path><path d="M 0 48 Q 355.5 -100 711 400 Q 1066.5 900 1422 48" stroke-dasharray="102 119" opacity="0.96"></path><path d="M 0 40 Q 355.5 -100 711 400 Q 1066.5 900 1422 40" stroke-dasharray="107 14" opacity="0.97"></path><path d="M 0 32 Q 355.5 -100 711 400 Q 1066.5 900 1422 32" stroke-dasharray="135 83" opacity="0.97"></path><path d="M 0 24 Q 355.5 -100 711 400 Q 1066.5 900 1422 24" stroke-dasharray="138 10" opacity="0.98"></path><path d="M 0 16 Q 355.5 -100 711 400 Q 1066.5 900 1422 16" stroke-dasharray="124 73" opacity="0.99"></path></g></svg>