<svg xmlns="http://www.w3.org/2000/svg" version="1.1" xmlns:xlink="http://www.w3.org/1999/xlink" xmlns:svgjs="http://svgjs.dev/svgjs" viewBox="0 0 1422 800" opacity="0.27"><defs><linearGradient x1="50%" y1="0%" x2="50%" y2="100%" id="oooscillate-grad"><stop stop-color="hsl(0, 0%, 100%)" stop-opacity="1" offset="0%"></stop><stop stop-color="hsl(0, 0%, 100%)" stop-opacity="1" offset="100%"></stop></linearGradient></defs><g stroke-width="1" stroke="url(#oooscillate-grad)" fill="none" stroke-linecap="round"><path d="M 0 999 Q 355.5 -100 711 400 Q 1066.5 900 1422 999" stroke-dasharray="6 116" opacity="1.00"></path><path d="M 0 990 Q 355.5 -100 711 400 Q 1066.5 900 1422 990" stroke-dasharray="88 79" opacity="0.99"></path><path d="M 0 981 Q 355.5 -100 711 400 Q 1066.5 900 1422 981" stroke-dasharray="56 35" opacity="0.98"></path><path d="M 0 972 Q 355.5 -100 711 400 Q 1066.5 900 1422 972" stroke-dasharray="17 92" opacity="0.97"></path><path d="M 0 963 Q 355.5 -100 711 400 Q 1066.5 900 1422 963" stroke-dasharray="46 82" opacity="0.97"></path><path d="M 0 954 Q 355.5 -100 711 400 Q 1066.5 900 1422 954" stroke-dasharray="108 107" opacity="0.96"></path><path d="M 0 945 Q 355.5 -100 711 400 Q 1066.5 900 1422 945" stroke-dasharray="49 38" opacity="0.95"></path><path d="M 0 936 Q 355.5 -100 711 400 Q 1066.5 900 1422 936" stroke-dasharray="30 114" opacity="0.94"></path><path d="M 0 927 Q 355.5 -100 711 400 Q 1066.5 900 1422 927" stroke-dasharray="85 134" opacity="0.93"></path><path d="M 0 918 Q 355.5 -100 711 400 Q 1066.5 900 1422 918" stroke-dasharray="80 58" opacity="0.92"></path><path d="M 0 909 Q 355.5 -100 711 400 Q 1066.5 900 1422 909" stroke-dasharray="134 40" opacity="0.91"></path><path d="M 0 900 Q 355.5 -100 711 400 Q 1066.5 900 1422 900" stroke-dasharray="67 68" opacity="0.91"></path><path d="M 0 891 Q 355.5 -100 711 400 Q 1066.5 900 1422 891" stroke-dasharray="51 97" opacity="0.90"></path><path d="M 0 882 Q 355.5 -100 711 400 Q 1066.5 900 1422 882" stroke-dasharray="98 118" opacity="0.89"></path><path d="M 0 873 Q 355.5 -100 711 400 Q 1066.5 900 1422 873" stroke-dasharray="54 66" opacity="0.88"></path><path d="M 0 864 Q 355.5 -100 711 400 Q 1066.5 900 1422 864" stroke-dasharray="113 6" opacity="0.87"></path><path d="M 0 855 Q 355.5 -100 711 400 Q 1066.5 900 1422 855" stroke-dasharray="83 117" opacity="0.86"></path><path d="M 0 846 Q 355.5 -100 711 400 Q 1066.5 900 1422 846" stroke-dasharray="92 129" opacity="0.85"></path><path d="M 0 837 Q 355.5 -100 711 400 Q 1066.5 900 1422 837" stroke-dasharray="12 60" opacity="0.84"></path><path d="M 0 828 Q 355.5 -100 711 400 Q 1066.5 900 1422 828" stroke-dasharray="148 98" opacity="0.84"></path><path d="M 0 819 Q 355.5 -100 711 400 Q 1066.5 900 1422 819" stroke-dasharray="49 92" opacity="0.83"></path><path d="M 0 810 Q 355.5 -100 711 400 Q 1066.5 900 1422 810" stroke-dasharray="115 137" opacity="0.82"></path><path d="M 0 801 Q 355.5 -100 711 400 Q 1066.5 900 1422 801" stroke-dasharray="15 26" opacity="0.81"></path><path d="M 0 792 Q 355.5 -100 711 400 Q 1066.5 900 1422 792" stroke-dasharray="18 121" opacity="0.80"></path><path d="M 0 783 Q 355.5 -100 711 400 Q 1066.5 900 1422 783" stroke-dasharray="8 24" opacity="0.79"></path><path d="M 0 774 Q 355.5 -100 711 400 Q 1066.5 900 1422 774" stroke-dasharray="27 90" opacity="0.78"></path><path d="M 0 765 Q 355.5 -100 711 400 Q 1066.5 900 1422 765" stroke-dasharray="79 91" opacity="0.78"></path><path d="M 0 756 Q 355.5 -100 711 400 Q 1066.5 900 1422 756" stroke-dasharray="43 113" opacity="0.77"></path><path d="M 0 747 Q 355.5 -100 711 400 Q 1066.5 900 1422 747" stroke-dasharray="20 134" opacity="0.76"></path><path d="M 0 738 Q 355.5 -100 711 400 Q 1066.5 900 1422 738" stroke-dasharray="22 128" opacity="0.75"></path><path d="M 0 729 Q 355.5 -100 711 400 Q 1066.5 900 1422 729" stroke-dasharray="9 32" opacity="0.74"></path><path d="M 0 720 Q 355.5 -100 711 400 Q 1066.5 900 1422 720" stroke-dasharray="139 22" opacity="0.73"></path><path d="M 0 711 Q 355.5 -100 711 400 Q 1066.5 900 1422 711" stroke-dasharray="94 103" opacity="0.72"></path><path d="M 0 702 Q 355.5 -100 711 400 Q 1066.5 900 1422 702" stroke-dasharray="48 110" opacity="0.72"></path><path d="M 0 693 Q 355.5 -100 711 400 Q 1066.5 900 1422 693" stroke-dasharray="11 38" opacity="0.71"></path><path d="M 0 684 Q 355.5 -100 711 400 Q 1066.5 900 1422 684" stroke-dasharray="127 73" opacity="0.70"></path><path d="M 0 675 Q 355.5 -100 711 400 Q 1066.5 900 1422 675" stroke-dasharray="33 54" opacity="0.69"></path><path d="M 0 666 Q 355.5 -100 711 400 Q 1066.5 900 1422 666" stroke-dasharray="3 135" opacity="0.68"></path><path d="M 0 657 Q 355.5 -100 711 400 Q 1066.5 900 1422 657" stroke-dasharray="109 24" opacity="0.67"></path><path d="M 0 648 Q 355.5 -100 711 400 Q 1066.5 900 1422 648" stroke-dasharray="84 124" opacity="0.66"></path><path d="M 0 639 Q 355.5 -100 711 400 Q 1066.5 900 1422 639" stroke-dasharray="115 108" opacity="0.65"></path><path d="M 0 630 Q 355.5 -100 711 400 Q 1066.5 900 1422 630" stroke-dasharray="78 38" opacity="0.65"></path><path d="M 0 621 Q 355.5 -100 711 400 Q 1066.5 900 1422 621" stroke-dasharray="112 66" opacity="0.64"></path><path d="M 0 612 Q 355.5 -100 711 400 Q 1066.5 900 1422 612" stroke-dasharray="136 14" opacity="0.63"></path><path d="M 0 603 Q 355.5 -100 711 400 Q 1066.5 900 1422 603" stroke-dasharray="110 92" opacity="0.62"></path><path d="M 0 594 Q 355.5 -100 711 400 Q 1066.5 900 1422 594" stroke-dasharray="75 142" opacity="0.61"></path><path d="M 0 585 Q 355.5 -100 711 400 Q 1066.5 900 1422 585" stroke-dasharray="104 69" opacity="0.60"></path><path d="M 0 576 Q 355.5 -100 711 400 Q 1066.5 900 1422 576" stroke-dasharray="141 106" opacity="0.59"></path><path d="M 0 567 Q 355.5 -100 711 400 Q 1066.5 900 1422 567" stroke-dasharray="15 27" opacity="0.59"></path><path d="M 0 558 Q 355.5 -100 711 400 Q 1066.5 900 1422 558" stroke-dasharray="11 25" opacity="0.58"></path><path d="M 0 549 Q 355.5 -100 711 400 Q 1066.5 900 1422 549" stroke-dasharray="86 52" opacity="0.57"></path><path d="M 0 540 Q 355.5 -100 711 400 Q 1066.5 900 1422 540" stroke-dasharray="134 62" opacity="0.56"></path><path d="M 0 531 Q 355.5 -100 711 400 Q 1066.5 900 1422 531" stroke-dasharray="123 149" opacity="0.55"></path><path d="M 0 522 Q 355.5 -100 711 400 Q 1066.5 900 1422 522" stroke-dasharray="21 19" opacity="0.54"></path><path d="M 0 513 Q 355.5 -100 711 400 Q 1066.5 900 1422 513" stroke-dasharray="126 3" opacity="0.53"></path><path d="M 0 504 Q 355.5 -100 711 400 Q 1066.5 900 1422 504" stroke-dasharray="89 85" opacity="0.53"></path><path d="M 0 495 Q 355.5 -100 711 400 Q 1066.5 900 1422 495" stroke-dasharray="94 86" opacity="0.52"></path><path d="M 0 486 Q 355.5 -100 711 400 Q 1066.5 900 1422 486" stroke-dasharray="144 65" opacity="0.51"></path><path d="M 0 477 Q 355.5 -100 711 400 Q 1066.5 900 1422 477" stroke-dasharray="10 145" opacity="0.50"></path><path d="M 0 468 Q 355.5 -100 711 400 Q 1066.5 900 1422 468" stroke-dasharray="47 73" opacity="0.49"></path><path d="M 0 459 Q 355.5 -100 711 400 Q 1066.5 900 1422 459" stroke-dasharray="149 49" opacity="0.48"></path><path d="M 0 450 Q 355.5 -100 711 400 Q 1066.5 900 1422 450" stroke-dasharray="39 93" opacity="0.47"></path><path d="M 0 441 Q 355.5 -100 711 400 Q 1066.5 900 1422 441" stroke-dasharray="10 122" opacity="0.46"></path><path d="M 0 432 Q 355.5 -100 711 400 Q 1066.5 900 1422 432" stroke-dasharray="10 76" opacity="0.46"></path><path d="M 0 423 Q 355.5 -100 711 400 Q 1066.5 900 1422 423" stroke-dasharray="118 142" opacity="0.45"></path><path d="M 0 414 Q 355.5 -100 711 400 Q 1066.5 900 1422 414" stroke-dasharray="58 32" opacity="0.44"></path><path d="M 0 405 Q 355.5 -100 711 400 Q 1066.5 900 1422 405" stroke-dasharray="79 64" opacity="0.43"></path><path d="M 0 396 Q 355.5 -100 711 400 Q 1066.5 900 1422 396" stroke-dasharray="138 134" opacity="0.42"></path><path d="M 0 387 Q 355.5 -100 711 400 Q 1066.5 900 1422 387" stroke-dasharray="101 82" opacity="0.41"></path><path d="M 0 378 Q 355.5 -100 711 400 Q 1066.5 900 1422 378" stroke-dasharray="21 56" opacity="0.40"></path><path d="M 0 369 Q 355.5 -100 711 400 Q 1066.5 900 1422 369" stroke-dasharray="45 52" opacity="0.40"></path><path d="M 0 360 Q 355.5 -100 711 400 Q 1066.5 900 1422 360" stroke-dasharray="77 126" opacity="0.39"></path><path d="M 0 351 Q 355.5 -100 711 400 Q 1066.5 900 1422 351" stroke-dasharray="39 29" opacity="0.38"></path><path d="M 0 342 Q 355.5 -100 711 400 Q 1066.5 900 1422 342" stroke-dasharray="148 116" opacity="0.37"></path><path d="M 0 333 Q 355.5 -100 711 400 Q 1066.5 900 1422 333" stroke-dasharray="100 58" opacity="0.36"></path><path d="M 0 324 Q 355.5 -100 711 400 Q 1066.5 900 1422 324" stroke-dasharray="13 77" opacity="0.35"></path><path d="M 0 315 Q 355.5 -100 711 400 Q 1066.5 900 1422 315" stroke-dasharray="84 147" opacity="0.34"></path><path d="M 0 306 Q 355.5 -100 711 400 Q 1066.5 900 1422 306" stroke-dasharray="59 145" opacity="0.34"></path><path d="M 0 297 Q 355.5 -100 711 400 Q 1066.5 900 1422 297" stroke-dasharray="97 58" opacity="0.33"></path><path d="M 0 288 Q 355.5 -100 711 400 Q 1066.5 900 1422 288" stroke-dasharray="20 113" opacity="0.32"></path><path d="M 0 279 Q 355.5 -100 711 400 Q 1066.5 900 1422 279" stroke-dasharray="126 145" opacity="0.31"></path><path d="M 0 270 Q 355.5 -100 711 400 Q 1066.5 900 1422 270" stroke-dasharray="73 69" opacity="0.30"></path><path d="M 0 261 Q 355.5 -100 711 400 Q 1066.5 900 1422 261" stroke-dasharray="4 4" opacity="0.29"></path><path d="M 0 252 Q 355.5 -100 711 400 Q 1066.5 900 1422 252" stroke-dasharray="110 69" opacity="0.28"></path><path d="M 0 243 Q 355.5 -100 711 400 Q 1066.5 900 1422 243" stroke-dasharray="146 95" opacity="0.27"></path><path d="M 0 234 Q 355.5 -100 711 400 Q 1066.5 900 1422 234" stroke-dasharray="30 108" opacity="0.27"></path><path d="M 0 225 Q 355.5 -100 711 400 Q 1066.5 900 1422 225" stroke-dasharray="45 68" opacity="0.26"></path><path d="M 0 216 Q 355.5 -100 711 400 Q 1066.5 900 1422 216" stroke-dasharray="115 130" opacity="0.25"></path><path d="M 0 207 Q 355.5 -100 711 400 Q 1066.5 900 1422 207" stroke-dasharray="2 64" opacity="0.24"></path><path d="M 0 198 Q 355.5 -100 711 400 Q 1066.5 900 1422 198" stroke-dasharray="133 139" opacity="0.23"></path><path d="M 0 189 Q 355.5 -100 711 400 Q 1066.5 900 1422 189" stroke-dasharray="137 144" opacity="0.22"></path><path d="M 0 180 Q 355.5 -100 711 400 Q 1066.5 900 1422 180" stroke-dasharray="70 147" opacity="0.21"></path><path d="M 0 171 Q 355.5 -100 711 400 Q 1066.5 900 1422 171" stroke-dasharray="126 112" opacity="0.21"></path><path d="M 0 162 Q 355.5 -100 711 400 Q 1066.5 900 1422 162" stroke-dasharray="8 65" opacity="0.20"></path><path d="M 0 153 Q 355.5 -100 711 400 Q 1066.5 900 1422 153" stroke-dasharray="103 21" opacity="0.19"></path><path d="M 0 144 Q 355.5 -100 711 400 Q 1066.5 900 1422 144" stroke-dasharray="21 2" opacity="0.18"></path><path d="M 0 135 Q 355.5 -100 711 400 Q 1066.5 900 1422 135" stroke-dasharray="78 28" opacity="0.17"></path><path d="M 0 126 Q 355.5 -100 711 400 Q 1066.5 900 1422 126" stroke-dasharray="84 116" opacity="0.16"></path><path d="M 0 117 Q 355.5 -100 711 400 Q 1066.5 900 1422 117" stroke-dasharray="105 46" opacity="0.15"></path><path d="M 0 108 Q 355.5 -100 711 400 Q 1066.5 900 1422 108" stroke-dasharray="61 38" opacity="0.15"></path><path d="M 0 99 Q 355.5 -100 711 400 Q 1066.5 900 1422 99" stroke-dasharray="41 111" opacity="0.14"></path><path d="M 0 90 Q 355.5 -100 711 400 Q 1066.5 900 1422 90" stroke-dasharray="21 142" opacity="0.13"></path><path d="M 0 81 Q 355.5 -100 711 400 Q 1066.5 900 1422 81" stroke-dasharray="106 144" opacity="0.12"></path><path d="M 0 72 Q 355.5 -100 711 400 Q 1066.5 900 1422 72" stroke-dasharray="104 138" opacity="0.11"></path><path d="M 0 63 Q 355.5 -100 711 400 Q 1066.5 900 1422 63" stroke-dasharray="94 116" opacity="0.10"></path><path d="M 0 54 Q 355.5 -100 711 400 Q 1066.5 900 1422 54" stroke-dasharray="72 106" opacity="0.09"></path><path d="M 0 45 Q 355.5 -100 711 400 Q 1066.5 900 1422 45" stroke-dasharray="10 45" opacity="0.08"></path><path d="M 0 36 Q 355.5 -100 711 400 Q 1066.5 900 1422 36" stroke-dasharray="92 108" opacity="0.08"></path><path d="M 0 27 Q 355.5 -100 711 400 Q 1066.5 900 1422 27" stroke-dasharray="16 131" opacity="0.07"></path><path d="M 0 18 Q 355.5 -100 711 400 Q 1066.5 900 1422 18" stroke-dasharray="69 144" opacity="0.06"></path></g></svg>