<svg xmlns="http://www.w3.org/2000/svg" version="1.1" xmlns:xlink="http://www.w3.org/1999/xlink" xmlns:svgjs="http://svgjs.dev/svgjs" viewBox="0 0 1422 800" opacity="0.33"><g fill="none" stroke-width="1.25" stroke="hsl(0, 0%, 100%)" stroke-linecap="round" stroke-dasharray="0 125" transform="matrix(1.5,0,0,1.5,-355.5,-200.00003051757812)"><line x1="820" y1="400" x2="602" y2="400" transform="rotate(0, 711, 400)" opacity="0.95"></line><line x1="552" y1="400" x2="870" y2="400" transform="rotate(4, 711, 400)" opacity="0.31"></line><line x1="349" y1="400" x2="1073" y2="400" transform="rotate(8, 711, 400)" opacity="0.94"></line><line x1="144.5" y1="400" x2="1277.5" y2="400" transform="rotate(12, 711, 400)" opacity="0.83"></line><line x1="169" y1="400" x2="1253" y2="400" transform="rotate(16, 711, 400)" opacity="0.68"></line><line x1="100.5" y1="400" x2="1321.5" y2="400" transform="rotate(20, 711, 400)" opacity="0.83"></line><line x1="-16" y1="400" x2="1438" y2="400" transform="rotate(24, 711, 400)" opacity="0.12"></line><line x1="1201.5" y1="400" x2="220.5" y2="400" transform="rotate(28, 711, 400)" opacity="0.61"></line><line x1="-39" y1="400" x2="1461" y2="400" transform="rotate(32, 711, 400)" opacity="0.78"></line><line x1="315.5" y1="400" x2="1106.5" y2="400" transform="rotate(36, 711, 400)" opacity="0.79"></line><line x1="551" y1="400" x2="871" y2="400" transform="rotate(40, 711, 400)" opacity="0.37"></line><line x1="-10.5" y1="400" x2="1432.5" y2="400" transform="rotate(44, 711, 400)" opacity="0.62"></line><line x1="-122.5" y1="400" x2="1544.5" y2="400" transform="rotate(48, 711, 400)" opacity="0.32"></line><line x1="258.5" y1="400" x2="1163.5" y2="400" transform="rotate(52, 711, 400)" opacity="0.26"></line><line x1="277" y1="400" x2="1145" y2="400" transform="rotate(56, 711, 400)" opacity="0.76"></line><line x1="550.5" y1="400" x2="871.5" y2="400" transform="rotate(60, 711, 400)" opacity="0.14"></line><line x1="323" y1="400" x2="1099" y2="400" transform="rotate(64, 711, 400)" opacity="0.66"></line><line x1="361" y1="400" x2="1061" y2="400" transform="rotate(68, 711, 400)" opacity="0.83"></line><line x1="1326" y1="400" x2="96" y2="400" transform="rotate(72, 711, 400)" opacity="0.19"></line><line x1="962.5" y1="400" x2="459.5" y2="400" transform="rotate(76, 711, 400)" opacity="0.70"></line><line x1="845" y1="400" x2="577" y2="400" transform="rotate(80, 711, 400)" opacity="0.44"></line><line x1="631.5" y1="400" x2="790.5" y2="400" transform="rotate(84, 711, 400)" opacity="0.56"></line><line x1="1203" y1="400" x2="219" y2="400" transform="rotate(88, 711, 400)" opacity="0.33"></line><line x1="839.5" y1="400" x2="582.5" y2="400" transform="rotate(92, 711, 400)" opacity="0.18"></line><line x1="662.5" y1="400" x2="759.5" y2="400" transform="rotate(96, 711, 400)" opacity="0.12"></line><line x1="1334.5" y1="400" x2="87.5" y2="400" transform="rotate(100, 711, 400)" opacity="0.59"></line><line x1="-80" y1="400" x2="1502" y2="400" transform="rotate(104, 711, 400)" opacity="0.25"></line><line x1="-194" y1="400" x2="1616" y2="400" transform="rotate(108, 711, 400)" opacity="0.84"></line><line x1="969" y1="400" x2="453" y2="400" transform="rotate(112, 711, 400)" opacity="0.96"></line><line x1="838" y1="400" x2="584" y2="400" transform="rotate(116, 711, 400)" opacity="0.88"></line><line x1="560.5" y1="400" x2="861.5" y2="400" transform="rotate(120, 711, 400)" opacity="0.59"></line><line x1="70" y1="400" x2="1352" y2="400" transform="rotate(124, 711, 400)" opacity="0.65"></line><line x1="1045" y1="400" x2="377" y2="400" transform="rotate(128, 711, 400)" opacity="0.11"></line><line x1="-135" y1="400" x2="1557" y2="400" transform="rotate(132, 711, 400)" opacity="0.15"></line><line x1="556" y1="400" x2="866" y2="400" transform="rotate(136, 711, 400)" opacity="0.95"></line><line x1="1127" y1="400" x2="295" y2="400" transform="rotate(140, 711, 400)" opacity="0.24"></line><line x1="-217" y1="400" x2="1639" y2="400" transform="rotate(144, 711, 400)" opacity="0.10"></line><line x1="-214" y1="400" x2="1636" y2="400" transform="rotate(148, 711, 400)" opacity="0.86"></line><line x1="1099.5" y1="400" x2="322.5" y2="400" transform="rotate(152, 711, 400)" opacity="0.13"></line><line x1="786" y1="400" x2="636" y2="400" transform="rotate(156, 711, 400)" opacity="0.13"></line><line x1="680.5" y1="400" x2="741.5" y2="400" transform="rotate(160, 711, 400)" opacity="0.93"></line><line x1="-117.5" y1="400" x2="1539.5" y2="400" transform="rotate(164, 711, 400)" opacity="0.37"></line><line x1="1103" y1="400" x2="319" y2="400" transform="rotate(168, 711, 400)" opacity="0.82"></line><line x1="614.5" y1="400" x2="807.5" y2="400" transform="rotate(172, 711, 400)" opacity="0.46"></line><line x1="1060" y1="400" x2="362" y2="400" transform="rotate(176, 711, 400)" opacity="0.10"></line><line x1="168.5" y1="400" x2="1253.5" y2="400" transform="rotate(180, 711, 400)" opacity="0.63"></line><line x1="1413.5" y1="400" x2="8.5" y2="400" transform="rotate(184, 711, 400)" opacity="0.73"></line><line x1="1129" y1="400" x2="293" y2="400" transform="rotate(188, 711, 400)" opacity="0.71"></line><line x1="529.5" y1="400" x2="892.5" y2="400" transform="rotate(192, 711, 400)" opacity="0.96"></line><line x1="493.5" y1="400" x2="928.5" y2="400" transform="rotate(196, 711, 400)" opacity="0.12"></line><line x1="171.5" y1="400" x2="1250.5" y2="400" transform="rotate(200, 711, 400)" opacity="0.77"></line><line x1="349.5" y1="400" x2="1072.5" y2="400" transform="rotate(204, 711, 400)" opacity="0.19"></line><line x1="47" y1="400" x2="1375" y2="400" transform="rotate(208, 711, 400)" opacity="0.50"></line><line x1="76.5" y1="400" x2="1345.5" y2="400" transform="rotate(212, 711, 400)" opacity="0.60"></line><line x1="851" y1="400" x2="571" y2="400" transform="rotate(216, 711, 400)" opacity="0.50"></line><line x1="719.5" y1="400" x2="702.5" y2="400" transform="rotate(220, 711, 400)" opacity="0.23"></line><line x1="689.5" y1="400" x2="732.5" y2="400" transform="rotate(224, 711, 400)" opacity="0.29"></line><line x1="1118.5" y1="400" x2="303.5" y2="400" transform="rotate(228, 711, 400)" opacity="0.92"></line><line x1="307" y1="400" x2="1115" y2="400" transform="rotate(232, 711, 400)" opacity="0.92"></line><line x1="1269.5" y1="400" x2="152.5" y2="400" transform="rotate(236, 711, 400)" opacity="0.14"></line><line x1="460.5" y1="400" x2="961.5" y2="400" transform="rotate(240, 711, 400)" opacity="0.70"></line><line x1="1105.5" y1="400" x2="316.5" y2="400" transform="rotate(244, 711, 400)" opacity="0.85"></line><line x1="825" y1="400" x2="597" y2="400" transform="rotate(248, 711, 400)" opacity="0.89"></line><line x1="666" y1="400" x2="756" y2="400" transform="rotate(252, 711, 400)" opacity="0.92"></line><line x1="520.5" y1="400" x2="901.5" y2="400" transform="rotate(256, 711, 400)" opacity="0.75"></line><line x1="-81.5" y1="400" x2="1503.5" y2="400" transform="rotate(260, 711, 400)" opacity="0.30"></line><line x1="1085.5" y1="400" x2="336.5" y2="400" transform="rotate(264, 711, 400)" opacity="0.68"></line><line x1="1299" y1="400" x2="123" y2="400" transform="rotate(268, 711, 400)" opacity="0.64"></line><line x1="1264.5" y1="400" x2="157.5" y2="400" transform="rotate(272, 711, 400)" opacity="0.28"></line><line x1="458.5" y1="400" x2="963.5" y2="400" transform="rotate(276, 711, 400)" opacity="0.85"></line><line x1="1392.5" y1="400" x2="29.5" y2="400" transform="rotate(280, 711, 400)" opacity="0.48"></line><line x1="1220.5" y1="400" x2="201.5" y2="400" transform="rotate(284, 711, 400)" opacity="0.58"></line><line x1="690" y1="400" x2="732" y2="400" transform="rotate(288, 711, 400)" opacity="0.58"></line><line x1="-231.5" y1="400" x2="1653.5" y2="400" transform="rotate(292, 711, 400)" opacity="0.37"></line><line x1="1152" y1="400" x2="270" y2="400" transform="rotate(296, 711, 400)" opacity="0.30"></line><line x1="606" y1="400" x2="816" y2="400" transform="rotate(300, 711, 400)" opacity="0.87"></line><line x1="-201" y1="400" x2="1623" y2="400" transform="rotate(304, 711, 400)" opacity="0.56"></line><line x1="1374.5" y1="400" x2="47.5" y2="400" transform="rotate(308, 711, 400)" opacity="0.70"></line><line x1="109.5" y1="400" x2="1312.5" y2="400" transform="rotate(312, 711, 400)" opacity="0.69"></line><line x1="1202" y1="400" x2="220" y2="400" transform="rotate(316, 711, 400)" opacity="0.59"></line><line x1="375" y1="400" x2="1047" y2="400" transform="rotate(320, 711, 400)" opacity="0.50"></line><line x1="565.5" y1="400" x2="856.5" y2="400" transform="rotate(324, 711, 400)" opacity="0.74"></line><line x1="677" y1="400" x2="745" y2="400" transform="rotate(328, 711, 400)" opacity="0.54"></line><line x1="379.5" y1="400" x2="1042.5" y2="400" transform="rotate(332, 711, 400)" opacity="0.85"></line><line x1="-4" y1="400" x2="1426" y2="400" transform="rotate(336, 711, 400)" opacity="0.26"></line></g></svg>